<?xml version="1.0" standalone="no"?>
<!DOCTYPE svg PUBLIC "-//W3C//DTD SVG 20010904//EN"
 "http://www.w3.org/TR/2001/REC-SVG-20010904/DTD/svg10.dtd">
<svg version="1.0" xmlns="http://www.w3.org/2000/svg"
 width="939.000000pt" height="940.000000pt" viewBox="0 0 939.000000 940.000000"
 preserveAspectRatio="xMidYMid meet">

<g transform="translate(0.000000,940.000000) scale(0.100000,-0.100000)"
fill="#000000" stroke="none">
<path d="M4845 9255 c-74 -25 -131 -32 -120 -15 3 6 2 10 -4 10 -5 0 -11 -5
-13 -12 -3 -9 -129 -14 -165 -6 -15 3 -68 -15 -113 -38 -25 -13 -82 -37 -126
-54 -83 -32 -141 -77 -196 -150 l-26 -35 -33 23 -34 23 29 -26 c36 -33 30 -40
-18 -20 -60 25 -144 29 -233 11 -45 -9 -87 -14 -95 -11 -8 3 -21 -1 -28 -10
-17 -21 -3 -20 112 7 81 18 102 20 166 11 41 -6 78 -15 83 -20 6 -6 -41 -29
-128 -62 -131 -50 -187 -77 -243 -118 -39 -28 -190 -185 -190 -197 -1 -22 -49
-46 -107 -52 -32 -4 -78 -17 -102 -30 -25 -13 -46 -22 -48 -20 -10 9 32 87 54
101 17 11 23 23 20 36 -3 12 -1 17 6 12 6 -4 8 0 4 10 -4 11 -2 14 9 10 7 -3
14 -1 14 4 0 33 177 167 276 209 32 14 46 23 31 19 -42 -9 -129 -50 -160 -76
-16 -13 -49 -36 -75 -51 -26 -14 -47 -31 -47 -37 0 -14 -22 -34 -40 -37 -37
-5 2 39 113 128 73 59 105 78 212 126 24 10 24 11 3 11 -91 3 -307 -146 -361
-249 -13 -25 -44 -75 -68 -111 -24 -37 -58 -96 -74 -132 -23 -48 -39 -68 -60
-77 -16 -7 -35 -18 -41 -26 -20 -25 -28 -15 -32 39 l-3 52 -2 -59 c-2 -50 -6
-62 -29 -82 -35 -30 -39 -18 -23 74 14 87 38 161 61 191 11 13 19 28 19 34 0
5 20 40 45 77 55 83 60 104 6 29 -107 -151 -161 -285 -161 -401 l0 -79 -32
-13 c-18 -8 -51 -17 -73 -20 l-40 -7 43 28 42 28 -50 16 c-27 9 -56 22 -65 29
-8 7 -15 8 -15 2 0 -11 61 -42 84 -42 41 0 6 -21 -114 -69 -72 -29 -152 -65
-179 -80 -26 -16 -64 -36 -85 -46 -85 -41 -200 -185 -182 -230 3 -9 2 -14 -3
-11 -5 3 -11 -4 -15 -17 -9 -34 -20 -163 -12 -156 10 9 56 147 60 179 3 26 42
100 52 100 3 0 2 -4 -1 -10 -3 -5 -1 -10 5 -10 6 0 15 10 20 23 5 12 9 18 9
13 1 -5 10 -1 21 9 11 10 20 15 20 11 0 -10 -59 -118 -74 -136 -8 -8 -30 -47
-50 -86 -19 -40 -46 -88 -59 -107 -13 -19 -31 -65 -41 -103 -30 -116 -65 -215
-105 -294 -31 -62 -42 -76 -67 -81 l-29 -7 27 -1 27 -1 -15 -37 -14 -38 37 45
c60 71 135 143 170 162 l31 17 16 -33 c22 -47 20 -73 -13 -174 -48 -142 -64
-241 -54 -314 7 -46 12 -58 17 -43 4 11 12 32 18 47 15 39 28 25 29 -30 3 -93
17 -112 18 -24 0 47 7 98 15 117 19 46 26 44 15 -2 -5 -21 -8 -60 -7 -88 l1
-50 7 60 c8 71 18 105 30 105 22 0 22 -62 2 -183 -12 -71 -20 -133 -16 -138 6
-11 -36 -89 -70 -129 l-21 -25 25 20 c14 10 42 37 62 59 l37 41 1 -43 c0 -24
4 -41 9 -37 5 3 15 -12 22 -32 6 -21 21 -54 31 -73 l20 -35 -7 48 c-8 56 3
177 16 177 28 0 89 -179 89 -261 0 -26 7 -60 16 -75 15 -29 16 -28 10 31 -4
55 -4 58 9 35 8 -14 14 -32 15 -41 0 -9 12 -38 26 -65 68 -126 78 -149 89
-197 7 -29 16 -60 20 -70 5 -11 -5 -6 -23 13 -24 23 -39 30 -70 30 -49 0 -74
-20 -106 -86 -55 -111 -67 -211 -41 -344 16 -86 57 -210 62 -193 2 6 -3 27
-11 47 -8 20 -12 44 -9 53 4 10 2 14 -5 9 -6 -4 -11 1 -11 11 0 10 -5 64 -11
120 -9 77 -9 117 0 158 11 53 23 68 33 43 3 -8 6 -6 6 5 1 9 -3 17 -9 17 -5 0
-10 7 -10 16 0 8 5 12 10 9 6 -3 11 2 11 12 1 10 2 23 4 28 1 6 3 18 3 27 3
26 67 61 90 49 11 -6 22 -8 25 -5 3 3 4 -6 3 -20 0 -14 -5 -26 -9 -26 -5 0 -5
-5 -1 -11 9 -14 24 9 17 27 -2 6 1 15 7 19 7 4 9 -2 6 -20 -4 -22 -2 -26 12
-21 15 5 15 4 -1 -8 -17 -13 -17 -16 2 -52 23 -43 20 -55 -7 -31 -10 10 -24
17 -30 17 -6 0 -14 5 -18 12 -5 7 -3 8 6 3 8 -5 11 -4 6 3 -5 8 -18 7 -48 -4
-51 -18 -48 -18 -48 8 0 12 -3 19 -6 16 -9 -10 -12 -225 -3 -240 6 -9 9 -7 9
9 0 12 10 38 21 58 17 28 24 33 35 24 11 -9 11 -17 -1 -47 -9 -19 -20 -41 -25
-47 -11 -14 -26 -105 -17 -105 8 0 47 89 47 107 0 31 28 -7 33 -45 3 -20 12
-62 21 -92 9 -30 18 -95 20 -145 2 -49 7 -98 11 -107 4 -11 3 -18 -4 -18 -6 0
-11 6 -11 14 0 7 -6 19 -14 25 -8 7 -18 37 -22 67 -10 83 -36 64 -29 -21 4
-52 26 -101 71 -161 47 -61 62 -73 96 -74 33 0 43 -13 23 -30 -8 -7 -15 -8
-15 -3 0 5 -16 14 -35 20 -33 11 -35 10 -35 -12 0 -15 8 -26 20 -30 34 -11 77
-85 81 -139 5 -63 -9 -68 -57 -22 -44 43 -60 39 -19 -4 44 -46 102 -82 151
-95 43 -11 48 -16 79 -76 59 -113 122 -248 129 -272 3 -13 30 -58 61 -100 30
-43 55 -81 55 -86 0 -5 -26 -19 -57 -31 -52 -20 -67 -21 -143 -13 -147 14
-244 8 -370 -25 -133 -35 -210 -71 -319 -147 -43 -30 -87 -58 -99 -62 -11 -5
-35 -20 -54 -36 -36 -30 -196 -145 -303 -217 -84 -57 -116 -85 -108 -94 3 -3
-3 -16 -14 -29 -28 -30 -40 -74 -54 -187 -6 -52 -13 -98 -15 -101 -2 -4 -13
-66 -23 -138 -14 -94 -25 -139 -40 -160 -12 -16 -21 -32 -21 -35 0 -14 -47
-73 -101 -128 -31 -31 -72 -76 -90 -100 -19 -24 -47 -54 -64 -68 -68 -56 -124
-113 -120 -120 2 -4 -8 -20 -23 -36 -69 -73 -102 -180 -102 -330 l0 -82 -45
-44 c-25 -25 -71 -58 -102 -75 -211 -109 -250 -132 -283 -163 -63 -60 -125
-110 -136 -110 -5 0 -54 -42 -107 -93 -53 -50 -109 -104 -124 -118 -15 -14
-46 -50 -68 -79 -22 -29 -53 -67 -70 -85 -52 -57 -64 -74 -71 -99 -3 -14 -12
-30 -20 -37 -8 -6 -14 -17 -14 -23 0 -7 -14 -25 -30 -41 l-30 -29 0 -498 0
-498 1705 0 1705 0 0 29 c0 15 -9 95 -21 177 -23 163 -25 316 -9 509 15 179
19 285 9 285 -5 0 -9 7 -9 15 0 8 -4 15 -10 15 -5 0 -11 17 -12 38 -1 34 -2
33 -8 -13 l-7 -50 -1 56 -2 56 49 -16 c38 -12 75 -40 160 -120 61 -57 111
-110 111 -117 0 -8 4 -14 9 -14 5 0 38 -40 75 -88 64 -86 106 -133 106 -117 0
4 6 2 13 -4 14 -11 27 -5 27 11 0 5 -4 7 -9 3 -5 -3 -12 -1 -15 4 -4 5 1 8 9
7 23 -3 29 -14 15 -31 -8 -9 -9 -20 -4 -28 5 -7 -1 -1 -13 13 -13 14 -23 19
-23 12 0 -14 67 -104 121 -162 18 -19 45 -55 61 -80 15 -24 65 -84 111 -133
206 -221 241 -257 249 -257 10 0 -18 33 -94 114 -32 34 -58 64 -58 68 0 10
-131 173 -142 177 -7 2 -8 -2 -3 -9 5 -8 4 -11 -3 -6 -6 4 -9 12 -7 19 3 7 -4
26 -15 42 -11 17 -25 39 -32 49 -35 54 -68 98 -68 91 0 -4 -7 -2 -15 5 -9 7
-13 21 -10 31 5 15 1 19 -17 20 -13 0 -17 3 -10 6 19 8 14 26 -5 18 -14 -4
-15 -3 -7 5 9 9 3 24 -21 60 -17 26 -35 64 -38 84 -5 32 -78 143 -157 240 -14
17 -31 42 -38 56 -7 14 -28 45 -47 70 -79 104 -107 154 -141 257 -32 95 -35
116 -31 178 6 82 36 238 47 245 21 14 9 136 -12 124 -7 -4 -8 -2 -4 4 13 21
-46 106 -88 127 -14 7 -22 22 -24 45 l-4 35 26 -35 c13 -19 43 -62 65 -95 22
-33 57 -84 77 -113 44 -62 285 -312 301 -312 6 0 -42 53 -106 118 -64 65 -132
138 -150 162 -28 36 -21 31 29 -20 35 -36 68 -64 73 -62 5 1 6 -1 3 -6 -6 -10
62 -77 78 -77 6 -1 10 -6 9 -13 -2 -6 6 -16 17 -22 11 -6 20 -7 20 -3 0 4 4 2
9 -6 6 -9 8 -5 7 16 -2 16 -19 58 -39 94 -21 36 -37 69 -37 73 0 4 -15 40 -34
79 -77 164 -103 237 -86 237 6 0 8 -5 4 -12 -4 -7 -3 -8 4 -4 9 5 4 18 -14 42
-29 38 -29 37 29 99 15 16 25 35 23 42 -12 31 16 9 51 -41 57 -80 146 -170
258 -261 135 -108 160 -126 228 -163 58 -32 230 -86 250 -79 6 2 -34 16 -89
31 -122 34 -241 99 -334 183 -19 17 -55 47 -80 66 -25 19 -44 40 -42 46 1 7
-2 10 -7 7 -5 -4 -13 -1 -17 5 -4 7 -3 9 3 6 6 -4 18 0 29 7 16 12 17 16 4 32
-8 10 -10 15 -3 11 12 -7 24 49 22 103 -2 51 1 60 21 60 23 0 24 -1 119 -90
79 -75 97 -90 107 -90 4 0 16 -7 26 -17 10 -9 21 -13 25 -9 8 7 -36 51 -52 51
-5 0 -12 5 -15 10 -3 6 16 11 46 13 55 3 78 19 109 77 l16 30 -6 -50 c-6 -49
-5 -49 8 -20 16 35 15 96 -2 148 -20 59 4 87 144 169 66 39 125 77 132 85 15
19 34 8 27 -15 -5 -14 -4 -14 4 -2 7 10 8 18 1 26 -7 9 -4 16 11 24 12 6 24 9
28 6 3 -3 0 -6 -6 -6 -7 0 -12 -7 -12 -15 0 -17 12 -19 38 -6 44 23 141 59
173 65 20 4 63 24 95 46 33 22 80 54 107 71 26 17 47 35 47 40 0 5 6 9 14 9 8
0 21 6 28 13 7 7 47 36 89 65 42 28 83 58 92 66 9 9 20 16 26 16 6 0 11 4 11
9 0 6 11 16 23 23 13 7 49 30 80 50 35 24 62 36 74 32 15 -5 16 -4 3 5 -13 10
-13 12 1 21 9 5 39 25 68 45 29 19 57 35 62 35 4 0 31 20 59 45 51 45 74 59
49 29 -10 -13 -10 -17 0 -24 10 -5 10 -9 2 -11 -12 -4 25 -124 70 -226 16 -35
23 -73 25 -143 2 -52 4 -99 5 -105 1 -5 -2 -36 -6 -68 -5 -40 -4 -57 4 -57 6
0 11 10 12 23 0 12 3 16 6 9 7 -17 63 -72 74 -72 5 0 9 5 9 12 0 9 3 9 12 0
15 -15 65 -16 70 0 3 8 11 9 24 3 18 -8 18 -9 -3 -12 -40 -7 -27 -33 16 -33
31 0 41 -4 46 -20 3 -11 4 -24 0 -30 -3 -6 0 -7 9 -4 11 4 14 14 10 30 -4 15
-2 24 5 24 6 0 11 7 11 15 0 8 5 15 10 15 6 0 10 -7 10 -15 0 -8 4 -15 8 -15
4 0 14 -16 21 -35 14 -40 12 -46 -57 -147 -26 -37 -39 -64 -32 -66 12 -4 -26
-52 -41 -52 -5 0 -25 -11 -45 -25 -20 -14 -51 -25 -68 -25 -22 0 -40 -9 -61
-32 -41 -44 -97 -86 -140 -104 -55 -23 -233 -141 -247 -164 -7 -12 -57 -48
-110 -81 -54 -34 -101 -65 -104 -71 -4 -5 -30 -21 -58 -34 -28 -13 -46 -24
-40 -24 19 0 77 27 104 48 33 25 210 132 220 132 8 0 147 78 165 92 11 9 105
66 171 104 23 13 59 28 80 33 22 5 48 12 58 17 15 6 17 4 11 -7 -5 -8 -5 -11
1 -6 5 5 9 12 9 15 1 23 141 136 160 128 8 -3 14 0 12 7 -1 7 5 10 13 9 8 -2
12 -1 9 3 -9 8 64 148 90 174 20 20 20 20 27 -12 3 -17 6 -82 6 -144 -1 -99
-4 -118 -22 -143 -21 -29 -20 -77 1 -64 5 3 6 10 3 16 -4 7 -2 8 4 4 7 -4 12
-3 12 3 0 5 7 17 16 26 10 9 17 30 16 46 0 16 3 29 7 29 5 0 7 21 5 48 -3 37
0 32 12 -27 12 -58 13 -76 3 -85 -9 -8 -10 -7 -6 7 4 11 3 16 -4 12 -6 -4 -8
-14 -5 -22 3 -8 -5 -25 -19 -39 -13 -13 -23 -25 -22 -25 12 -8 44 -4 41 5 -6
16 22 53 33 43 15 -15 8 -317 -10 -432 -16 -99 -68 -398 -83 -468 -11 -51 -14
-22 -4 34 5 30 11 74 14 99 19 191 31 269 37 258 5 -7 6 4 2 24 -3 22 -1 43 5
51 6 7 13 68 15 138 2 68 0 113 -4 99 -7 -24 -7 -24 -8 6 -1 16 4 35 11 42 9
9 8 12 -5 12 -11 0 -17 -8 -17 -22 0 -19 -2 -20 -10 -8 -5 8 -7 22 -4 32 7 24
-12 32 -37 15 -12 -9 -16 -18 -10 -21 5 -4 12 -2 16 4 3 5 12 10 18 10 7 0 6
-4 -3 -10 -13 -9 -13 -11 0 -19 8 -6 11 -14 6 -18 -5 -4 -11 -2 -13 5 -3 6
-13 12 -23 12 -28 0 -29 21 -1 50 23 26 69 32 54 7 -4 -6 -1 -7 8 -1 8 5 17 9
21 9 3 0 9 3 13 6 3 4 -2 6 -12 6 -40 0 -54 3 -48 12 13 22 -14 18 -33 -4 -12
-14 -26 -25 -32 -25 -5 0 -9 -3 -9 -7 1 -5 0 -11 -1 -15 -2 -7 -6 -20 -9 -33
0 -3 -10 -1 -21 5 -20 11 -19 30 1 30 6 0 8 -4 4 -9 -3 -5 -1 -12 4 -15 10 -7
9 20 -2 30 -7 8 43 50 55 46 11 -3 10 6 -2 29 -6 10 -18 19 -28 18 -14 0 -14
-2 2 -8 13 -5 16 -10 8 -15 -6 -4 -21 -2 -32 4 -19 10 -20 9 -14 -14 4 -18 0
-29 -14 -42 -11 -9 -18 -23 -15 -30 3 -8 1 -14 -5 -14 -13 0 -35 -55 -29 -72
2 -7 11 4 20 25 10 23 21 36 28 32 8 -5 8 -10 0 -18 -6 -6 -11 -17 -11 -25 0
-8 13 0 31 18 36 36 53 29 40 -17 -12 -42 -2 -160 15 -174 8 -6 14 -16 14 -21
0 -6 -7 -4 -16 3 -14 12 -16 11 -12 -6 2 -12 -5 -27 -18 -38 -26 -20 -31 -21
-37 -4 -2 6 -3 1 -1 -13 3 -27 -26 -48 -181 -136 -33 -18 -55 -34 -50 -34 6 0
25 9 44 21 50 30 139 61 152 53 7 -4 9 -3 6 2 -3 5 10 20 28 33 33 22 55 22
55 -1 0 -7 -5 -7 -14 1 -11 9 -15 6 -20 -15 -5 -17 -3 -30 5 -34 9 -6 8 -11
-2 -23 -11 -12 -17 -12 -34 -1 -17 10 -23 10 -39 -1 -17 -13 -17 -15 -3 -30 9
-8 18 -24 22 -35 3 -10 12 -17 19 -14 16 6 10 -103 -10 -164 -8 -23 -14 -52
-14 -63 0 -11 -9 -66 -19 -122 -29 -149 -93 -680 -111 -912 -6 -72 -15 -157
-20 -190 -5 -33 -10 -70 -10 -82 l0 -23 1660 0 1660 0 0 564 0 565 -36 61
c-19 33 -44 85 -54 116 -11 30 -28 72 -39 92 -24 44 -96 208 -105 240 -9 27
-30 30 -22 2 3 -11 9 -30 12 -42 3 -13 16 -52 30 -88 13 -36 25 -77 26 -92 1
-16 6 -28 11 -28 5 0 7 -12 4 -26 -3 -17 0 -28 10 -31 12 -5 12 -7 1 -14 -8
-5 -9 -9 -2 -9 7 0 14 -9 17 -20 3 -11 1 -20 -4 -20 -5 0 -8 -12 -8 -27 1 -17
3 -21 6 -10 5 19 21 23 20 4 -2 -64 4 -120 13 -107 14 21 13 -5 0 -31 -7 -12
-21 -19 -40 -19 -20 0 -30 -5 -30 -15 0 -11 -12 -15 -44 -15 -44 0 -45 1 -45
33 0 84 -4 112 -13 118 -6 4 -12 17 -13 30 -9 83 -98 362 -129 407 -17 24 -32
39 -34 34 -1 -5 8 -39 22 -75 42 -112 76 -271 76 -358 0 -53 -4 -79 -11 -79
-8 0 -10 18 -6 60 4 37 3 60 -3 60 -6 0 -10 -27 -10 -60 0 -46 -3 -60 -14 -60
-10 0 -16 -13 -19 -37 -3 -35 -4 -35 -5 9 l-2 46 -80 4 -80 3 -6 -32 c-8 -45
-21 -41 -28 7 -3 22 -9 58 -12 81 -4 25 -2 45 5 52 14 14 14 27 1 27 -5 0 -10
-7 -10 -15 0 -32 -18 -12 -29 33 -7 26 -20 74 -31 107 -10 33 -21 69 -23 80
-10 38 -83 240 -101 277 -11 23 -15 45 -11 59 5 14 4 19 -4 15 -6 -4 -11 -2
-11 5 0 6 -10 31 -22 56 -16 31 -26 42 -39 38 -20 -7 -49 33 -49 68 0 13 19
53 42 88 55 84 68 108 68 128 0 10 -5 7 -13 -9 -17 -32 -48 -81 -65 -100 -15
-17 -53 -71 -79 -112 -10 -16 -24 -28 -30 -28 -29 0 -63 118 -41 142 25 27 58
77 59 90 0 7 15 32 32 54 18 23 46 61 64 84 18 23 42 68 53 99 12 31 28 63 36
73 28 30 33 199 10 293 -8 32 7 32 24 0 21 -39 22 -23 1 18 -11 22 -21 32 -24
25 -3 -8 -6 -6 -6 5 -1 9 -7 17 -13 17 -23 0 -136 109 -168 162 -45 72 -116
145 -260 264 -69 56 -131 112 -138 123 -7 12 -18 21 -25 21 -14 0 -107 90
-107 103 0 5 5 5 12 1 7 -4 8 -3 4 4 -4 7 -13 12 -20 12 -7 0 -21 9 -32 21
-29 33 -99 86 -90 69 4 -8 -28 21 -71 65 -66 69 -133 125 -133 112 0 -2 18
-23 40 -47 22 -24 38 -45 36 -47 -7 -7 -53 23 -91 60 -42 40 -63 42 -25 2 13
-14 20 -25 15 -25 -15 0 -46 44 -40 58 7 20 -19 44 -34 29 -6 -6 -11 -7 -11
-1 0 5 5 15 11 21 7 7 -9 27 -52 66 -35 31 -66 54 -69 51 -3 -3 9 -15 25 -27
17 -12 45 -36 64 -52 31 -29 32 -32 15 -45 -16 -13 -17 -13 -11 3 3 9 2 17 -2
17 -15 0 -20 -27 -8 -40 9 -10 9 -11 0 -6 -8 4 -13 2 -13 -6 0 -9 -3 -9 -8 -2
-10 15 -47 34 -67 34 -10 0 -39 11 -67 25 -27 14 -57 25 -67 25 -9 0 -22 5
-28 11 -6 6 -29 10 -51 7 -40 -3 -40 -3 -35 24 4 20 1 28 -9 28 -7 0 -21 9
-31 20 -9 11 -23 20 -31 20 -7 0 -16 9 -19 20 -6 25 -27 27 -27 3 -1 -17 -1
-17 -11 0 -17 29 0 36 91 38 78 2 91 -1 157 -32 40 -19 73 -38 73 -43 0 -4 -8
-5 -17 -2 -10 4 -14 4 -10 -1 5 -4 22 -8 38 -9 l29 -2 -24 19 c-84 66 -204
105 -295 96 -91 -9 -33 14 74 29 l90 13 -100 -5 c-55 -3 -176 -14 -270 -24
-168 -19 -171 -19 -245 0 -41 11 -114 23 -162 26 -49 4 -88 10 -88 13 0 3 9
20 20 36 11 17 20 36 20 43 0 7 -39 -45 -86 -115 -47 -70 -90 -129 -95 -131
-5 -2 -9 -9 -9 -15 0 -33 -259 -310 -357 -382 -22 -16 -39 -33 -37 -36 2 -4
-5 -14 -16 -24 -12 -10 -20 -13 -20 -7 0 7 5 12 10 12 6 0 10 5 10 10 0 13
-99 -61 -99 -74 -1 -5 9 0 22 11 12 11 29 23 37 27 24 12 -45 -47 -79 -67 -26
-15 -30 -16 -25 -2 3 8 11 15 17 15 6 0 7 3 4 7 -4 3 -19 -7 -34 -22 -16 -16
-21 -25 -13 -20 13 7 13 6 0 -8 -28 -29 -167 -105 -167 -91 0 7 4 11 7 9 4 -3
19 4 33 15 14 11 30 20 36 20 6 0 11 5 11 11 0 5 4 8 8 5 10 -6 59 31 51 38
-3 4 -23 -1 -45 -11 -86 -36 -101 -19 -16 19 65 31 100 54 91 62 -3 3 -30 -10
-60 -29 -30 -19 -61 -35 -69 -35 -9 0 -27 -8 -40 -17 -49 -34 -187 -85 -345
-125 -153 -40 -167 -41 -310 -41 -82 0 -177 2 -210 6 -33 3 -73 6 -90 7 l-30
2 30 8 c17 4 22 8 12 9 -10 0 -45 17 -78 36 -33 19 -63 34 -67 33 -4 -1 -25 9
-47 23 -22 14 -60 33 -85 43 -56 22 -96 59 -111 103 -8 25 -26 44 -65 69 -29
19 -57 34 -62 34 -4 0 -22 12 -39 28 -41 36 -68 58 -133 112 -56 46 -160 143
-352 329 -60 59 -108 98 -108 89 0 -8 -6 -21 -14 -28 -12 -9 -13 -17 -4 -36 6
-13 13 -22 15 -20 3 2 -1 14 -7 26 -7 13 -8 20 -2 16 6 -4 15 2 21 11 13 23
14 8 1 -17 -7 -13 -7 -21 0 -25 5 -3 10 -15 10 -25 0 -14 5 -18 17 -13 15 6
16 5 3 -9 -14 -15 -16 -14 -26 8 -6 14 -14 25 -18 24 -8 -1 -31 29 -109 145
-29 42 -82 151 -162 330 -23 51 -54 154 -71 234 -13 62 -16 133 -15 379 0 167
5 311 10 319 11 20 2 55 -12 46 -6 -3 -7 -1 -3 6 4 6 12 8 18 5 7 -4 8 7 4 32
-4 22 -2 59 3 84 9 44 9 44 10 10 1 -24 4 -31 10 -21 5 7 6 23 3 35 -3 11 -1
18 3 13 5 -4 17 5 27 20 10 16 18 23 18 18 0 -6 -6 -18 -12 -25 -7 -8 -4 -7 7
3 11 9 20 27 20 40 0 13 9 26 23 32 25 11 30 35 7 35 -17 0 -20 26 -4 36 6 3
15 0 20 -7 18 -29 35 33 32 119 -1 6 3 12 9 12 5 0 7 4 3 10 -3 5 9 14 27 19
28 9 22 10 -32 6 -44 -3 -59 -2 -45 4 11 5 44 10 73 10 l52 1 0 -107 c0 -135
16 -202 77 -328 40 -82 61 -112 128 -179 45 -45 97 -89 116 -98 196 -97 372
-110 578 -42 141 47 139 46 259 158 59 56 76 79 101 134 6 12 15 22 20 22 5 0
7 -10 5 -22 -3 -15 3 -9 16 15 11 20 22 37 24 37 1 0 -5 -22 -13 -49 -9 -27
-20 -46 -25 -43 -5 3 -7 -2 -3 -11 3 -8 -1 -21 -9 -27 -8 -7 -14 -20 -14 -29
0 -9 -9 -30 -20 -48 -11 -19 -15 -35 -10 -38 6 -4 19 15 30 42 11 26 25 57 32
68 28 47 48 96 48 116 0 17 3 19 13 10 11 -8 13 -4 9 21 -4 24 -2 29 9 23 8
-5 11 -5 7 -1 -3 4 4 31 17 59 23 51 28 77 26 127 -1 31 -14 16 -31 -38 -7
-24 -18 -46 -23 -49 -11 -6 -2 24 23 82 10 22 18 52 18 66 3 63 16 75 99 98
112 30 182 27 300 -11 54 -17 99 -32 100 -33 1 0 0 -18 -4 -38 -5 -31 -8 -35
-17 -21 -10 14 -15 12 -40 -12 -23 -24 -26 -33 -21 -63 10 -51 16 -125 10
-119 -3 2 -12 22 -20 44 l-15 39 5 -44 c6 -45 95 -226 122 -248 8 -6 12 -16 8
-22 -4 -7 0 -8 11 -4 14 5 16 3 11 -11 -4 -10 -3 -15 3 -11 6 3 14 -4 19 -17
10 -26 38 -54 47 -46 2 3 -7 19 -21 36 -14 16 -25 35 -25 40 0 6 -11 19 -24
29 -13 11 -43 57 -66 104 -23 46 -39 81 -35 77 13 -12 95 -143 95 -151 0 -5 5
-5 11 -2 6 4 9 1 7 -7 -3 -16 86 -98 105 -98 7 0 5 5 -4 10 -9 5 -20 21 -23
35 -4 16 -11 23 -18 19 -7 -5 -8 -3 -4 5 6 8 39 -19 102 -83 51 -53 100 -96
108 -96 7 0 42 -13 77 -30 145 -67 325 -77 469 -25 41 15 84 34 95 42 l20 15
-20 -5 c-11 -3 -51 -18 -90 -33 -63 -26 -82 -28 -200 -29 -135 0 -240 18 -213
37 9 7 8 8 -5 4 -21 -7 -151 52 -185 84 -12 12 -19 26 -16 32 4 6 3 8 -2 5 -9
-5 -99 77 -99 91 0 4 -19 50 -42 102 -23 53 -44 120 -48 152 -4 31 -12 64 -19
73 -11 16 -4 96 19 205 16 73 57 130 95 130 32 0 24 -17 -15 -31 -19 -7 -35
-17 -35 -22 0 -5 8 -6 18 -3 15 5 14 4 -2 -9 -10 -8 -22 -12 -26 -10 -5 3 -10
-2 -13 -9 -3 -8 -1 -17 6 -20 9 -3 9 -5 0 -5 -7 -1 -13 -6 -13 -12 0 -5 4 -8
9 -5 5 4 11 0 14 -6 3 -10 9 -9 23 4 18 15 77 21 68 6 -2 -4 1 -10 7 -14 8 -4
7 -9 -2 -16 -10 -6 -7 -7 9 -3 28 8 28 1 0 -51 -29 -56 -20 -76 33 -72 30 1
45 -3 54 -16 8 -10 18 -15 23 -12 15 9 43 -4 36 -16 -4 -6 2 -7 16 -3 15 5 20
4 16 -4 -5 -7 2 -11 18 -11 14 0 26 -4 26 -9 0 -5 33 -12 74 -16 63 -6 80 -4
117 14 23 12 53 21 66 21 15 0 22 4 17 11 -4 8 3 9 25 4 18 -4 31 -3 31 3 0
12 47 23 115 27 28 2 53 4 58 4 13 1 40 69 33 86 -3 9 -10 14 -15 10 -5 -3
-12 -1 -16 5 -3 5 -1 10 6 10 10 0 10 3 2 11 -6 6 -9 17 -7 23 2 6 -19 29 -48
51 -70 53 -82 68 -58 77 13 5 16 14 12 33 l-5 27 119 -7 c96 -5 124 -10 144
-26 14 -11 33 -22 43 -26 12 -4 16 -11 12 -22 -5 -13 -4 -13 6 -4 10 10 16 8
31 -9 10 -12 16 -28 14 -35 -3 -7 0 -12 6 -10 10 2 22 -29 48 -121 6 -24 13
-42 16 -39 9 9 -29 134 -58 189 -29 56 -72 99 -133 131 -16 9 -23 16 -14 17
24 0 102 -53 130 -91 36 -47 49 -73 70 -143 13 -41 17 -49 14 -23 -7 44 -4 44
120 26 63 -10 75 -14 75 -30 0 -14 -7 -19 -28 -19 -15 0 -38 -7 -51 -16 -18
-13 -25 -14 -31 -4 -5 8 -9 6 -15 -7 -6 -15 -9 -13 -19 16 l-12 34 -21 -57
c-15 -40 -19 -65 -13 -84 7 -23 8 -24 9 -5 2 35 12 53 32 53 23 0 39 -29 39
-73 0 -43 11 -54 26 -26 9 19 13 9 23 -68 6 -49 11 -103 11 -119 0 -22 3 -26
10 -14 5 8 7 22 5 30 -2 8 0 22 5 30 7 12 11 8 16 -17 4 -18 10 -30 15 -27 15
9 56 96 75 159 16 53 19 56 22 30 3 -26 7 -21 35 46 18 42 37 82 43 90 6 8 17
38 24 67 6 28 14 52 16 52 3 0 9 -10 14 -22 9 -23 9 -23 9 3 1 14 7 34 15 45
14 19 15 18 42 -6 18 -17 28 -21 31 -12 3 6 12 12 20 12 15 0 15 2 0 18 -9 9
-19 40 -22 68 -8 59 6 97 31 87 13 -5 15 -2 9 16 -7 22 24 83 49 98 7 5 20 30
29 57 19 55 15 54 -19 -1 -13 -21 -24 -32 -24 -25 0 7 -4 10 -10 7 -5 -3 5 20
24 52 19 32 37 75 40 96 4 21 11 35 16 32 8 -5 18 31 40 147 6 32 15 60 20 63
12 7 92 153 107 195 7 19 13 60 13 91 0 31 7 70 15 85 17 34 19 54 5 54 -5 0
-10 20 -10 44 0 25 -4 48 -10 51 -5 3 -11 21 -11 38 l-1 32 -8 -30 c-4 -16 -8
-25 -9 -20 0 6 -21 34 -45 64 -45 55 -106 183 -106 222 0 19 -55 119 -65 119
-2 0 5 -20 16 -45 24 -55 20 -84 -4 -33 -9 20 -38 64 -64 98 -52 66 -83 112
-83 120 0 3 32 -25 70 -62 39 -38 77 -68 85 -68 8 0 15 -4 15 -8 0 -8 43 -32
56 -32 3 0 4 7 2 16 -5 25 19 28 39 5 9 -12 22 -21 27 -21 5 0 -2 13 -17 28
-15 15 -30 43 -34 62 l-6 35 44 -36 c72 -58 78 -56 16 8 -38 39 -61 72 -66 96
-6 25 -5 35 3 33 6 -2 8 -1 4 1 -8 5 -110 131 -123 152 -10 18 34 8 88 -19 20
-11 37 -18 37 -16 0 11 -109 74 -137 81 -40 8 -43 23 -5 30 15 4 34 11 42 16
8 5 33 18 55 29 l40 20 -55 -6 c-54 -5 -55 -5 -33 13 12 10 38 29 57 43 38 27
49 48 16 30 -11 -6 -20 -15 -20 -20 0 -6 -4 -10 -9 -10 -4 0 9 33 30 73 36 69
66 187 47 187 -4 0 -8 -7 -8 -16 0 -30 -51 -84 -80 -84 -34 0 -42 8 -30 31 10
18 1 19 -143 5 -39 -4 -66 -27 -67 -56 0 -11 -17 -19 -52 -27 -60 -12 -199 -8
-207 6 -4 5 -29 14 -56 20 -107 22 -281 71 -310 87 -16 9 -40 26 -52 37 -13
11 -23 16 -23 11 0 -5 -4 -4 -8 1 -4 6 -52 25 -107 44 -109 37 -205 78 -205
88 0 6 83 -1 140 -13 l35 -7 -19 21 c-19 22 -19 22 5 22 20 0 21 2 9 11 -13 9
-13 11 -1 16 8 3 26 17 40 31 23 23 23 25 6 34 -10 6 -41 7 -74 3 -76 -9 -295
-5 -299 6 -2 5 -12 9 -22 9 -10 0 -22 5 -26 11 -3 6 -15 8 -26 6 -11 -3 -38 1
-60 9 -22 8 -51 14 -65 14 -14 0 -21 4 -18 10 3 6 -1 10 -9 10 -9 0 -16 4 -16
9 0 5 -26 19 -57 32 -32 13 -69 29 -83 36 -14 7 -28 13 -32 13 -12 0 -148 137
-148 149 0 6 -6 8 -13 5 -8 -3 -20 2 -27 11 -10 12 -10 15 0 15 9 0 7 7 -5 20
-10 11 -24 20 -32 20 -8 0 -11 5 -8 10 3 6 -1 10 -9 10 -9 0 -16 5 -16 10 0
13 -2 12 -85 -15z m-2592 -1490 c-3 -9 -8 -14 -10 -11 -3 3 -2 9 2 15 9 16 15
13 8 -4z m4762 -603 c23 -68 55 -257 54 -327 0 -33 -6 -87 -13 -120 -14 -59
-14 -58 -15 106 -1 169 -1 166 -57 378 -12 43 13 13 31 -37z m-3423 -37 c-3
-30 0 -45 8 -45 8 0 9 10 5 33 -4 17 -5 30 -2 27 3 -3 45 -64 92 -135 83 -123
107 -154 182 -230 40 -41 37 -42 -106 -56 -58 -5 -110 -14 -116 -19 -6 -5 -24
-8 -40 -6 -17 2 -40 -3 -52 -11 -19 -13 -25 -13 -45 1 l-22 16 24 0 c14 0 32
5 40 10 12 8 9 10 -13 10 -16 0 -26 4 -23 9 4 5 1 22 -4 37 -9 23 -9 25 4 15
9 -7 21 -11 28 -8 7 3 4 6 -7 6 -17 1 -18 3 -5 12 13 9 13 10 0 6 -21 -6 -70
21 -70 38 0 8 -4 15 -10 15 -5 0 -10 5 -10 11 0 5 5 7 10 4 6 -3 10 -1 10 5 0
7 7 9 16 6 8 -3 12 -2 9 4 -3 6 -13 10 -21 10 -16 0 -18 34 -3 65 7 16 9 14 6
-12 -2 -18 0 -30 5 -27 4 3 9 29 9 57 l2 52 7 -40 c6 -39 6 -39 14 -12 5 15
12 27 17 27 5 0 9 5 9 10 0 6 -5 9 -11 8 -6 -2 -14 3 -17 11 -3 9 0 11 8 6 9
-6 12 0 8 23 -2 17 -1 29 4 26 4 -3 8 -17 8 -32 0 -15 4 -33 9 -40 12 -19 18
1 27 80 6 56 11 78 17 78 1 0 1 -20 -1 -45z m-25 3 c-3 -7 -5 -2 -5 12 0 14 2
19 5 13 2 -7 2 -19 0 -25z m-10 -85 c-3 -10 -5 -2 -5 17 0 19 2 27 5 18 2 -10
2 -26 0 -35z m3458 -153 c35 -204 -17 -368 -139 -446 -29 -18 -28 -17 13 46
56 86 90 162 103 229 10 52 5 233 -7 291 -5 22 -5 23 4 4 5 -12 17 -67 26
-124z m-3508 -126 c-3 -3 -12 -4 -19 -1 -8 3 -5 6 6 6 11 1 17 -2 13 -5z
m1277 -64 c5 -17 4 -20 -2 -10 -5 8 -13 26 -16 40 -5 17 -4 20 2 10 5 -8 13
-26 16 -40z m-1277 -28 c7 -5 -3 -16 -30 -30 -40 -22 -41 -22 -17 -2 25 21 25
22 3 17 -13 -3 -23 -3 -23 -1 0 4 39 22 50 23 3 0 10 -3 17 -7z m1318 -72 c1
-14 33 -49 39 -43 4 4 4 0 1 -8 -4 -10 11 -29 45 -58 45 -38 52 -41 66 -27 21
22 27 20 12 -4 -7 -11 -17 -20 -21 -20 -16 0 -106 83 -131 121 -15 21 -24 39
-21 39 4 0 -1 10 -9 22 -9 12 -16 27 -16 33 1 9 34 -43 35 -55z m-839 -69 c-3
-5 1 -14 8 -20 11 -10 16 -8 24 5 6 11 11 13 16 5 4 -6 12 -11 18 -11 6 0 5 7
-3 17 -13 15 -12 15 9 4 12 -6 22 -16 22 -21 0 -6 7 -10 15 -10 17 0 52 -18
73 -37 12 -12 56 -18 90 -14 6 1 12 -2 12 -8 0 -5 -6 -12 -12 -15 -7 -3 -2 -4
12 -1 14 2 32 -1 40 -6 12 -9 11 -10 -7 -6 -12 3 -24 0 -25 -5 -2 -6 -13 -8
-26 -4 -12 4 -20 11 -17 16 3 4 -4 6 -15 3 -11 -3 -20 -6 -20 -8 0 -3 112 -39
123 -40 4 0 11 -6 15 -12 4 -7 21 -11 37 -10 24 2 29 -2 27 -17 -2 -12 1 -16
9 -10 8 5 10 3 4 -6 -6 -10 -4 -12 9 -7 11 4 15 3 10 -4 -4 -8 1 -9 15 -4 20
6 27 -3 22 -29 -1 -5 5 -6 12 -3 8 3 25 -1 36 -10 12 -8 25 -12 28 -9 4 3 2 6
-3 6 -5 0 -10 9 -10 21 0 20 4 21 98 17 54 -2 101 -7 104 -11 12 -12 26 -8 18
6 -6 9 -5 9 7 0 9 -7 25 -14 37 -16 12 -2 25 -6 28 -10 4 -4 12 -7 18 -7 6 1
0 10 -13 20 -32 27 -26 25 56 -15 82 -40 169 -65 231 -65 l43 0 -26 -42 c-14
-24 -29 -42 -33 -41 -5 1 -6 -11 -4 -28 2 -16 0 -29 -5 -29 -20 0 -73 22 -69
28 2 4 -6 8 -17 9 -12 1 -38 5 -57 8 -22 4 -11 -3 30 -18 107 -40 126 -49 114
-54 -6 -2 -48 10 -93 27 -45 16 -106 33 -135 36 -82 10 -297 -40 -282 -65 5
-8 -4 -45 -22 -91 -7 -21 -8 -21 -17 -55 -4 -16 -14 -37 -22 -46 -8 -9 -13
-20 -12 -25 1 -5 0 -12 -1 -16 -4 -13 -7 -27 -9 -39 0 -5 -6 -7 -12 -4 -6 4
-9 1 -8 -6 4 -19 -19 -59 -34 -59 -7 0 -6 4 3 10 8 5 12 10 8 10 -4 0 7 30 23
68 39 84 58 137 64 176 13 80 17 86 56 106 22 11 65 27 97 34 43 11 50 15 26
15 -28 1 -90 -15 -136 -34 -14 -5 -18 -2 -18 13 0 33 -59 135 -102 175 -60 55
-67 45 -9 -13 51 -51 101 -142 101 -182 -1 -16 -6 -9 -16 21 -39 109 -117 188
-224 227 -41 14 -79 30 -85 34 -11 8 -61 21 -170 45 -101 23 -282 30 -405 16
-90 -11 -158 -29 -285 -76 -11 -4 -6 2 10 12 146 94 592 111 827 32 34 -11 87
-33 119 -50 67 -33 87 -37 62 -11 -10 10 -20 17 -22 16 -2 -2 -18 4 -35 13
-48 25 -58 29 -108 43 -26 8 -45 16 -43 19 2 4 -9 6 -23 7 -15 0 -67 8 -116
17 -49 10 -125 17 -170 17 -94 0 -352 -25 -380 -36 -14 -5 -17 -4 -12 4 4 7
16 12 26 12 28 0 33 17 7 25 -21 6 -21 7 8 19 57 25 72 27 79 11 3 -9 2 -14
-3 -11 -5 3 -24 3 -42 -1 -28 -5 -30 -7 -14 -14 29 -11 37 -10 29 2 -4 8 3 9
24 4 18 -3 33 -2 37 4 3 6 22 11 41 11 19 0 33 4 30 9 -3 5 -24 7 -46 4 -26
-4 -40 -2 -40 5 0 8 11 9 32 5 18 -3 29 -2 26 3 -3 5 24 10 61 12 36 1 91 4
121 7 35 2 49 1 40 -5 -11 -7 -5 -9 20 -7 19 1 41 8 48 15 16 14 26 16 18 3z
m1039 -73 c-2 -38 10 -68 28 -68 7 0 20 -9 30 -20 9 -11 15 -20 12 -20 -8 0
-115 61 -115 66 0 4 44 74 46 74 1 0 1 -15 -1 -32z m-1590 -68 c-22 -10 -44
-18 -50 -18 -5 0 8 8 30 19 22 10 45 18 50 18 6 0 -8 -9 -30 -19z m-1028 -37
c-3 -10 -5 -2 -5 17 0 19 2 27 5 18 2 -10 2 -26 0 -35z m983 43 c0 -2 -7 -7
-16 -10 -8 -3 -12 -2 -9 4 6 10 25 14 25 6z m620 -6 c103 -16 230 -52 223 -63
-3 -6 -1 -7 4 -4 6 4 26 1 43 -7 30 -12 31 -14 14 -24 -25 -15 -12 -15 20 -1
22 10 31 8 63 -13 82 -54 149 -150 154 -218 5 -67 0 -102 -13 -94 -10 6 -10 5
-1 -7 15 -19 -6 -64 -22 -45 -17 20 -16 36 3 29 13 -5 14 -3 6 7 -17 17 -54 3
-54 -21 0 -11 11 -24 25 -31 30 -14 33 -38 5 -45 -11 -3 -20 -14 -20 -24 0
-17 -32 -44 -41 -34 -2 2 -5 -8 -6 -22 -1 -19 1 -22 8 -12 5 8 9 10 9 4 0 -5
-4 -16 -9 -23 -4 -7 -4 -34 -1 -60 8 -50 4 -75 -11 -66 -5 3 -6 -2 -3 -11 10
-25 -176 -202 -198 -189 -6 4 -8 3 -5 -3 12 -20 -84 -56 -238 -89 -92 -20
-225 -12 -334 21 -103 31 -133 49 -233 144 -68 64 -87 90 -120 161 -64 138
-85 237 -80 388 3 107 17 68 16 -45 l-2 -108 7 105 c5 86 10 110 27 132 12 15
23 26 25 23 2 -2 4 9 5 23 0 15 4 34 8 43 4 10 2 16 -8 16 -8 0 -12 -5 -10
-11 2 -6 -7 -33 -21 -61 -20 -42 -24 -46 -25 -24 0 14 9 36 20 49 12 14 16 26
10 30 -14 9 37 84 71 104 16 10 29 13 29 7 0 -5 -9 -12 -20 -16 -27 -9 -67
-65 -46 -65 8 0 18 10 21 21 6 17 9 19 16 8 5 -8 6 -23 3 -34 -3 -11 -2 -16 3
-10 15 19 36 17 29 -2 -4 -13 0 -11 14 6 31 37 24 81 -8 49 -9 -9 -12 -9 -12
3 0 12 -2 12 -11 -1 -9 -13 -10 -13 -6 0 2 8 11 14 21 12 9 -2 16 2 16 7 0 6
14 18 31 27 25 12 34 13 43 3 6 -6 7 -9 1 -6 -5 3 -22 0 -37 -6 -22 -10 -24
-14 -12 -25 11 -10 14 -10 14 2 0 22 23 25 42 5 16 -17 16 -18 -2 -16 -10 1
-16 5 -14 9 10 16 -9 8 -22 -9 -15 -20 -19 -83 -5 -83 5 0 11 10 15 23 7 27
70 72 87 61 8 -5 9 -3 5 5 -5 7 -15 10 -23 7 -8 -3 -21 1 -29 9 -14 13 -14 15
0 15 8 0 17 4 20 9 4 5 -3 7 -14 4 -11 -3 -20 0 -20 5 0 13 51 28 155 47 85
16 316 18 405 5z m307 4 c-3 -3 -12 -4 -19 -1 -8 3 -5 6 6 6 11 1 17 -2 13 -5z
m1637 -33 c97 -18 183 -47 172 -59 -3 -2 -27 4 -53 16 -88 37 -238 55 -432 51
-159 -4 -170 -3 -116 8 79 16 294 8 429 -16z m-2589 -1 c-3 -5 -12 -10 -18
-10 -7 0 -6 4 3 10 19 12 23 12 15 0z m1770 -28 c-3 -3 -11 0 -18 7 -9 10 -8
11 6 5 10 -3 15 -9 12 -12z m215 15 c0 -2 -15 -13 -32 -26 l-33 -22 28 25 c26
24 37 31 37 23z m192 -22 c-3 -12 1 -16 12 -12 8 3 18 1 22 -5 4 -7 3 -8 -4
-4 -7 4 -12 2 -12 -3 0 -6 5 -11 12 -11 6 0 8 -3 5 -7 -10 -10 -48 29 -43 43
3 7 1 15 -5 18 -5 2 -4 3 3 2 7 -2 12 -11 10 -21z m-32 4 c12 -8 10 -9 -9 -4
-14 5 -21 3 -17 -3 9 -14 -21 -35 -36 -26 -7 5 -16 9 -20 9 -17 0 -16 13 2 18
14 3 20 0 20 -11 0 -15 14 -8 16 9 1 5 2 11 3 14 2 9 25 5 41 -6z m-721 -13
c9 -11 9 -16 -1 -22 -7 -4 -10 -4 -6 1 4 4 3 14 -3 22 -6 7 -9 13 -6 13 2 0
10 -6 16 -14z m636 -25 c13 -5 4 -8 -28 -8 -29 0 -43 4 -35 9 16 9 36 9 63 -1z
m-85 -11 c0 -5 -5 -10 -11 -10 -5 0 -7 5 -4 10 3 6 8 10 11 10 2 0 4 -4 4 -10z
m-2095 -30 c-9 -17 -20 -28 -25 -25 -6 4 -10 1 -10 -4 0 -7 -25 -10 -67 -9
l-68 2 62 3 c54 3 66 8 90 33 35 38 37 37 18 0z m2269 11 c4 -5 -3 -7 -14 -4
-23 6 -26 13 -6 13 8 0 17 -4 20 -9z m-2309 -11 c-3 -5 -12 -10 -18 -10 -7 0
-6 4 3 10 19 12 23 12 15 0z m10 -67 c-3 -10 -9 -30 -12 -45 -5 -27 -8 -28
-69 -28 l-64 0 0 40 0 39 58 4 c31 2 65 4 76 5 13 2 16 -2 11 -15z m1958 -16
c-42 -88 -52 -111 -47 -119 3 -4 0 -8 -5 -8 -6 0 -11 9 -11 20 0 24 60 143 68
135 3 -3 1 -15 -5 -28z m-2187 -19 c-11 -15 -16 -18 -16 -7 0 16 21 42 28 34
2 -2 -3 -14 -12 -27z m2840 17 c-20 -15 -36 -19 -36 -10 0 5 38 23 50 24 3 0
-4 -6 -14 -14z m569 -63 c-9 -9 -35 15 -45 41 l-11 32 30 -35 c16 -19 28 -36
26 -38z m-939 46 c4 -7 3 -8 -4 -4 -7 4 -12 2 -12 -3 0 -6 -8 -11 -17 -11 -15
0 -14 2 3 15 23 18 21 17 30 3z m-213 -25 c-7 -2 -19 -2 -25 0 -7 3 -2 5 12 5
14 0 19 -2 13 -5z m652 -13 c3 -6 -1 -7 -9 -4 -18 7 -21 14 -7 14 6 0 13 -4
16 -10z m-530 -10 c-3 -5 -12 -10 -18 -10 -7 0 -6 4 3 10 19 12 23 12 15 0z
m435 -37 c14 -9 35 -26 48 -39 l23 -23 -23 -15 c-34 -22 -118 -53 -161 -60
l-38 -6 25 27 c29 31 41 72 31 105 -18 63 -20 59 27 42 23 -8 54 -22 68 -31z
m686 38 c-4 -5 -3 -11 1 -14 5 -2 2 -2 -5 0 -8 1 -28 3 -45 4 -27 0 -29 2 -12
9 27 12 68 12 61 1z m-1166 -15 c0 -3 -4 -8 -10 -11 -5 -3 -10 -1 -10 4 0 6 5
11 10 11 6 0 10 -2 10 -4z m97 -43 c-8 -41 11 -91 41 -108 43 -23 13 -18 -65
12 -40 16 -73 33 -73 39 0 18 81 95 92 88 5 -4 8 -18 5 -31z m1183 -47 c0 -52
-6 -43 -13 18 -3 30 -1 43 4 35 5 -8 9 -32 9 -53z m-1483 -42 c-2 -36 1 -68 5
-70 12 -7 10 -54 -2 -54 -5 0 -10 3 -11 8 0 4 -2 40 -5 80 -5 68 -2 102 11
102 2 0 3 -30 2 -66z m-44 -28 c22 -17 22 -21 -2 -23 -15 -1 -18 3 -14 15 4
13 2 12 -10 -3 -13 -16 -16 -17 -17 -4 0 30 15 36 43 15z m612 -16 c24 0 35
-4 30 -9 -16 -16 -68 -22 -77 -8 -6 9 -8 9 -8 -1 0 -7 -5 -10 -11 -6 -6 3 -29
8 -51 10 -22 1 -46 8 -52 15 -8 9 5 10 59 5 39 -3 88 -6 110 -6z m-2728 -72
c-3 -8 -6 -5 -6 6 -1 11 2 17 5 13 3 -3 4 -12 1 -19z m2127 14 c3 -5 -1 -9 -9
-9 -8 0 -12 4 -9 9 3 4 7 8 9 8 2 0 6 -4 9 -8z m9 -36 c3 -8 0 -17 -8 -20 -10
-3 -12 0 -8 11 4 11 2 14 -5 9 -7 -4 -12 -2 -12 3 0 16 27 13 33 -3z m-2146
-38 c-3 -8 -6 -5 -6 6 -1 11 2 17 5 13 3 -3 4 -12 1 -19z m2190 -5 c0 -15 6
-29 12 -31 6 -2 11 -13 10 -25 0 -17 -5 -12 -20 18 -20 42 -24 65 -11 65 4 0
8 -12 9 -27z m-605 -5 c-7 -7 -12 -8 -12 -2 0 14 12 26 19 19 2 -3 -1 -11 -7
-17z m28 3 c0 -5 -9 -19 -20 -32 l-20 -24 17 32 c19 34 23 39 23 24z m506 -25
c0 -15 -5 -21 -10 -16 -5 5 -6 16 -3 24 9 23 15 19 13 -8z m47 7 c2 -10 8 -27
12 -38 4 -11 -2 -5 -14 13 -23 36 -25 42 -12 42 5 0 11 -8 14 -17z m12 -109
c14 -25 21 -43 16 -40 -16 10 -61 94 -60 113 0 15 2 14 9 -4 5 -13 21 -44 35
-69z m86 -51 c28 -32 34 -49 10 -28 -13 11 -30 33 -38 49 -12 23 -17 26 -25
15 -8 -11 -9 -10 -4 4 3 10 6 28 7 40 0 15 5 9 17 -20 9 -22 24 -49 33 -60z
m-769 65 c-7 -7 -12 -8 -12 -2 0 14 12 26 19 19 2 -3 -1 -11 -7 -17z m2508
-1602 c0 -3 -4 -8 -10 -11 -5 -3 -10 -1 -10 4 0 6 5 11 10 11 6 0 10 -2 10 -4z
m60 -51 c10 -12 10 -15 -4 -15 -9 0 -16 7 -16 15 0 8 2 15 4 15 2 0 9 -7 16
-15z m105 -64 c0 -8 -6 -15 -13 -17 -7 -1 -8 0 -2 3 15 7 12 23 -5 23 -8 0
-15 -5 -15 -11 0 -5 -5 -7 -11 -3 -8 4 -7 9 2 15 19 12 44 6 44 -10z m-1052
-16 c-3 -9 -8 -14 -10 -11 -3 3 -2 9 2 15 9 16 15 13 8 -4z m1117 5 c12 -8 9
-10 -12 -10 -15 0 -30 5 -33 10 -8 13 25 13 45 0z m250 -50 c0 -5 -10 -10 -22
-9 -22 0 -22 1 -3 9 11 5 21 9 23 9 1 1 2 -3 2 -9z m-1145 -55 c40 -30 145
-85 161 -85 7 0 35 -13 62 -29 27 -16 69 -38 93 -48 24 -11 79 -53 122 -94 44
-41 87 -78 98 -83 10 -5 19 -12 19 -16 0 -4 11 -23 24 -42 56 -83 76 -227 47
-344 -10 -40 -18 -53 -44 -67 -78 -41 -135 -3 -227 153 -29 49 -61 98 -71 109
-23 25 -89 127 -89 139 0 5 -17 33 -38 63 -41 57 -112 172 -150 242 -13 23
-31 53 -41 67 -10 14 -23 36 -30 48 -12 22 -11 23 11 17 12 -4 37 -17 53 -30z
m272 -91 c-3 -3 -12 -4 -19 -1 -8 3 -5 6 6 6 11 1 17 -2 13 -5z m145 -39 c35
-14 53 -24 41 -24 -13 -1 -23 -5 -23 -11 0 -5 -8 -6 -17 -3 -15 6 -15 7 1 13
14 5 8 9 -23 19 -23 6 -46 9 -52 5 -6 -3 -26 -3 -45 0 -28 6 -32 9 -21 21 15
17 51 12 139 -20z m-35 -13 c8 -5 9 -13 3 -22 -8 -12 -10 -12 -10 -1 0 7 -6
11 -15 7 -9 -3 -15 0 -15 9 0 16 18 19 37 7z m170 -28 c-3 -3 -12 -4 -19 -1
-8 3 -5 6 6 6 11 1 17 -2 13 -5z m-137 -29 c11 -13 10 -14 -4 -9 -9 3 -16 10
-16 15 0 13 6 11 20 -6z m60 -35 c0 -5 -2 -10 -4 -10 -3 0 -8 5 -11 10 -3 6
-1 10 4 10 6 0 11 -4 11 -10z m319 -136 c51 -55 81 -106 81 -138 0 -8 -10 -31
-22 -52 l-21 -36 -17 22 c-12 16 -24 21 -38 18 -28 -8 -53 21 -90 102 -43 95
-59 159 -45 182 9 16 101 -43 152 -98z m-3116 27 c-2 -3 -16 8 -31 24 l-27 28
31 -24 c17 -13 30 -26 27 -28z m68 -11 c6 0 7 -4 4 -10 -3 -5 -1 -10 4 -10 6
0 11 4 11 9 0 5 8 12 17 15 15 6 15 5 -1 -13 -18 -19 -17 -20 20 -37 22 -9 45
-16 53 -15 8 2 10 -2 5 -10 -5 -9 -2 -10 10 -6 9 4 15 3 12 -1 -8 -13 58 -11
66 2 6 8 8 7 8 -1 0 -7 -8 -17 -17 -22 -16 -9 -10 -13 13 -10 4 0 10 -3 13 -8
20 -28 104 -52 212 -61 11 -1 18 -6 15 -10 -2 -4 6 -9 18 -10 13 -1 34 -6 47
-12 20 -9 18 -9 -16 -5 -145 20 -248 53 -376 121 -96 51 -189 115 -146 100 10
-3 23 -6 28 -6z m1295 -125 c-11 -8 -25 -15 -30 -15 -6 1 0 7 14 15 32 19 40
18 16 0z m-1076 -889 c0 -10 -57 -44 -85 -50 -21 -4 -14 2 25 23 30 16 56 29
58 30 1 0 2 -1 2 -3z m-622 -61 c-3 -3 -9 2 -12 12 -6 14 -5 15 5 6 7 -7 10
-15 7 -18z m497 -5 c-3 -5 -11 -10 -16 -10 -6 0 -7 5 -4 10 3 6 11 10 16 10 6
0 7 -4 4 -10z m-24 -28 c-7 -2 -18 1 -23 6 -8 8 -4 9 13 5 13 -4 18 -8 10 -11z
m-754 -354 c-3 -8 -6 -5 -6 6 -1 11 2 17 5 13 3 -3 4 -12 1 -19z m174 -65 c13
-16 12 -17 -3 -4 -17 13 -22 21 -14 21 2 0 10 -8 17 -17z m2896 -20 c-3 -10
-5 -4 -5 12 0 17 2 24 5 18 2 -7 2 -21 0 -30z m-2723 -19 c3 -8 2 -12 -4 -9
-6 3 -10 10 -10 16 0 14 7 11 14 -7z m4843 -100 c-3 -4 0 -23 8 -43 16 -39 64
-209 72 -253 3 -16 9 -28 13 -28 4 0 10 -23 14 -50 4 -28 11 -61 15 -73 9 -23
26 -96 36 -159 3 -22 2 -38 -4 -38 -5 0 -13 25 -16 55 -7 54 -25 87 -25 45 0
-18 -5 -21 -32 -20 -60 4 -61 3 -55 -35 3 -21 2 -33 -4 -30 -5 4 -9 20 -9 36
0 33 -17 112 -30 144 -5 11 -20 46 -34 77 -14 31 -32 79 -41 105 -15 47 -15
49 13 108 16 33 35 78 41 100 7 22 14 46 16 53 3 6 10 12 16 12 7 0 10 -3 6
-6z m-2167 -34 c0 -5 -4 -10 -10 -10 -5 0 -10 5 -10 10 0 6 5 10 10 10 6 0 10
-4 10 -10z m-2605 -18 c-3 -3 -11 0 -18 7 -9 10 -8 11 6 5 10 -3 15 -9 12 -12z
m2575 -8 c0 -9 -5 -14 -12 -12 -18 6 -21 28 -4 28 9 0 16 -7 16 -16z m57 -6
c-3 -8 -6 -5 -6 6 -1 11 2 17 5 13 3 -3 4 -12 1 -19z m-71 -178 c19 0 22 -7
28 -66 4 -37 4 -69 1 -72 -3 -3 -5 9 -5 26 0 24 -4 30 -16 25 -10 -4 -17 1
-21 16 -6 24 -23 29 -23 6 0 -8 -5 -15 -11 -15 -12 0 -3 37 15 59 8 11 8 15
-1 18 -7 3 -13 10 -13 16 0 8 4 7 12 -1 7 -7 22 -12 34 -12z m-36 -142 c0 -16
-3 -19 -11 -11 -6 6 -8 16 -5 22 11 17 16 13 16 -11z m32 -3 c3 -13 1 -22 -3
-19 -9 5 -13 44 -5 44 2 0 6 -11 8 -25z m18 -82 c-11 -17 -11 -17 -6 0 3 10 7
31 7 45 l2 27 4 -27 c2 -15 -1 -35 -7 -45z m10 -84 c0 -23 -21 -22 -28 2 -3
11 -2 11 7 -1 9 -13 11 -13 11 3 0 9 2 17 5 17 3 0 5 -9 5 -21z m2297 -81 c-3
-7 -5 -2 -5 12 0 14 2 19 5 13 2 -7 2 -19 0 -25z m-5336 -110 c5 -90 -1 -178
-11 -178 -6 0 -10 58 -9 158 1 112 4 145 9 115 5 -23 10 -66 11 -95z m5569 87
c0 -11 -11 -15 -40 -15 -29 0 -40 4 -40 15 0 11 11 15 40 15 29 0 40 -4 40
-15z m-5390 -15 c6 -11 8 -20 6 -20 -3 0 -10 9 -16 20 -6 11 -8 20 -6 20 3 0
10 -9 16 -20z m5103 -80 c3 -11 1 -18 -4 -14 -5 3 -9 12 -9 20 0 20 7 17 13
-6z m-5006 -32 c-3 -7 -5 -2 -5 12 0 14 2 19 5 13 2 -7 2 -19 0 -25z m5710
-20 c-3 -7 -5 -2 -5 12 0 14 2 19 5 13 2 -7 2 -19 0 -25z m-5717 -19 c15 -28
5 -23 -15 7 -9 15 -12 23 -6 20 6 -4 16 -16 21 -27z m5603 6 c-6 -17 -25 -15
-31 3 -2 7 5 12 17 12 14 0 19 -5 14 -15z m-5529 -61 c3 -8 2 -12 -4 -9 -6 3
-10 10 -10 16 0 14 7 11 14 -7z m19 -31 c-3 -10 -3 -15 2 -11 4 4 20 -8 36
-28 15 -19 31 -36 36 -37 4 -1 7 -5 6 -9 -4 -12 39 -58 53 -58 20 0 25 -16 10
-29 -10 -9 -23 3 -62 55 -27 36 -60 76 -73 89 -13 12 -20 28 -17 34 11 17 16
13 9 -6z m164 -202 c-10 -12 -9 -14 6 -8 11 4 16 3 12 -4 -4 -5 -12 -8 -18 -6
-16 5 -17 34 -1 34 11 0 11 -3 1 -16z m87 -114 c-2 -7 7 -24 20 -36 14 -13 23
-29 19 -34 -4 -6 0 -8 8 -5 10 4 15 -1 16 -14 2 -19 1 -19 -18 -3 -10 10 -19
23 -19 30 0 6 -11 22 -25 35 -13 12 -22 27 -19 31 8 14 24 10 18 -4z m90 -113
c3 -8 2 -12 -4 -9 -6 3 -10 10 -10 16 0 14 7 11 14 -7z m43 -59 c-3 -7 0 -19
6 -26 10 -11 9 -11 -5 0 -10 7 -15 18 -12 23 3 5 -2 16 -12 24 -18 14 -17 14
4 4 13 -6 21 -17 19 -25z"/>
<path d="M3615 7050 c3 -5 8 -10 11 -10 2 0 4 5 4 10 0 6 -5 10 -11 10 -5 0
-7 -4 -4 -10z"/>
<path d="M3496 6912 c-3 -5 1 -9 9 -9 8 0 12 4 9 9 -3 4 -7 8 -9 8 -2 0 -6 -4
-9 -8z"/>
<path d="M3480 6846 c16 -20 83 -45 148 -55 68 -11 54 2 -19 18 -30 6 -72 21
-92 31 -44 24 -54 25 -37 6z"/>
<path d="M3628 6713 c7 -3 16 -2 19 1 4 3 -2 6 -13 5 -11 0 -14 -3 -6 -6z"/>
<path d="M3748 6473 c7 -3 16 -2 19 1 4 3 -2 6 -13 5 -11 0 -14 -3 -6 -6z"/>
<path d="M4513 6236 c12 -19 23 -32 25 -31 6 5 -21 54 -33 59 -8 2 -4 -10 8
-28z"/>
<path d="M4798 6113 c18 -2 45 -2 60 0 15 2 0 4 -33 4 -33 0 -45 -2 -27 -4z"/>
<path d="M5048 6098 c5 -5 16 -8 23 -6 8 3 3 7 -10 11 -17 4 -21 3 -13 -5z"/>
<path d="M5005 6440 c-3 -5 -1 -10 4 -10 6 0 11 5 11 10 0 6 -2 10 -4 10 -3 0
-8 -4 -11 -10z"/>
<path d="M3963 6373 c9 -2 25 -2 35 0 9 3 1 5 -18 5 -19 0 -27 -2 -17 -5z"/>
<path d="M4033 6355 c-17 -19 -2 -27 55 -27 26 0 56 -6 67 -13 14 -8 28 -9 45
-3 20 7 22 11 10 18 -8 5 -27 10 -42 10 -15 0 -30 5 -33 11 -4 6 -24 8 -49 5
-29 -4 -35 -3 -21 3 l20 10 -20 0 c-11 0 -26 -6 -32 -14z"/>
<path d="M3906 6351 c-19 -7 -19 -8 2 -13 12 -4 20 -2 17 2 -3 5 1 11 7 13 7
3 9 5 3 6 -5 0 -19 -4 -29 -8z"/>
<path d="M3968 6333 c6 -2 18 -2 25 0 6 3 1 5 -13 5 -14 0 -19 -2 -12 -5z"/>
<path d="M4000 6305 c0 -9 6 -12 15 -9 8 4 12 10 9 15 -8 14 -24 10 -24 -6z"/>
<path d="M4065 6300 c-10 -15 15 -32 35 -24 8 4 26 9 39 12 20 4 23 2 18 -12
-5 -11 -3 -15 5 -10 7 4 8 3 4 -4 -4 -7 -3 -12 3 -12 5 0 13 5 16 10 3 6 2 10
-4 10 -5 0 -13 9 -16 20 -7 21 -39 27 -65 10 -9 -6 -17 -5 -21 2 -4 7 -9 6
-14 -2z"/>
<path d="M4201 6301 c-8 -5 1 -8 27 -7 23 0 35 4 29 8 -16 10 -39 10 -56 -1z"/>
<path d="M3793 6270 c-74 -19 -127 -43 -151 -66 -7 -8 -18 -11 -24 -8 -7 4 -8
2 -4 -4 9 -15 -39 -34 -68 -27 -11 2 -15 2 -8 -1 17 -8 15 -24 -3 -24 -8 0
-14 -6 -12 -12 1 -7 -5 -14 -13 -14 -8 -1 -20 -2 -27 -3 -7 0 -10 -8 -7 -16 4
-8 1 -15 -6 -15 -7 0 -10 -6 -7 -14 3 -8 -3 -23 -14 -34 -24 -26 -24 -27 0
-51 17 -17 26 -18 53 -10 40 11 38 11 38 1 0 -4 -12 -9 -27 -10 -61 -5 -39
-27 44 -42 38 -7 83 -19 101 -27 23 -9 31 -10 27 -3 -6 9 -2 9 14 1 11 -7 21
-8 21 -3 0 4 9 8 19 8 11 0 18 -3 15 -7 -6 -10 86 -21 178 -22 76 -1 158 20
135 35 -8 5 -6 8 8 8 11 0 31 3 44 7 17 4 22 3 17 -5 -4 -7 15 0 42 13 28 14
61 25 74 25 26 0 58 27 58 49 0 21 -42 111 -50 106 -4 -2 -15 4 -25 15 -10 11
-14 20 -9 20 5 0 1 5 -9 11 -9 6 -15 14 -12 20 3 5 0 7 -7 4 -7 -3 -39 6 -71
19 -33 13 -53 26 -45 29 7 3 -5 3 -28 0 -23 -3 -51 0 -64 7 -14 8 -25 9 -29 2
-6 -11 -90 -23 -157 -23 -47 0 -93 -15 -149 -50 -22 -13 -43 -24 -47 -24 -3 0
-10 -3 -14 -7 -4 -5 -12 -8 -18 -8 -6 0 1 8 14 17 14 10 33 25 44 35 26 24 85
51 112 51 13 0 21 3 18 8 -3 5 10 6 28 3 26 -5 30 -3 18 6 -12 9 -11 10 8 5
12 -3 22 -2 22 3 0 5 55 8 124 8 120 -1 125 -2 191 -36 37 -19 66 -37 64 -40
-2 -3 17 -25 43 -49 26 -25 44 -49 41 -55 -4 -7 -1 -7 6 0 10 9 10 17 -1 35
-7 13 -17 27 -22 30 -5 4 -6 14 -3 22 4 12 2 14 -10 10 -9 -4 -22 2 -32 13
-25 30 -100 76 -114 69 -7 -4 -3 1 8 11 l20 17 -20 -8 c-25 -10 -48 -9 -105 4
-68 15 -157 12 -237 -9z m-23 -80 c-8 -5 -22 -9 -30 -9 -10 0 -8 3 5 9 27 12
43 12 25 0z m70 -89 c-12 -24 1 -89 27 -130 12 -19 13 -23 2 -19 -8 3 -46 15
-86 27 -73 23 -123 53 -123 74 0 19 60 47 126 61 33 7 60 11 62 10 2 -1 -1
-12 -8 -23z m233 12 c-7 -2 -19 -2 -25 0 -7 3 -2 5 12 5 14 0 19 -2 13 -5z
m150 -35 c17 -16 27 -33 24 -42 -4 -10 -1 -13 7 -10 7 3 16 -2 19 -10 7 -17
-8 -30 -23 -21 -5 3 -7 0 -4 -9 4 -11 -4 -16 -33 -21 -21 -4 -65 -15 -99 -26
-47 -15 -84 -19 -162 -17 -64 2 -98 6 -92 12 6 6 48 9 94 7 148 -4 203 28 214
124 5 50 13 52 55 13z m-489 -114 c22 -8 20 -24 -3 -24 -10 0 -21 7 -25 15 -6
16 3 19 28 9z"/>
<path d="M4200 6250 c-8 -5 -10 -10 -5 -10 6 0 17 5 25 10 8 5 11 10 5 10 -5
0 -17 -5 -25 -10z"/>
<path d="M4335 6250 c-3 -5 -1 -10 4 -10 6 0 11 5 11 10 0 6 -2 10 -4 10 -3 0
-8 -4 -11 -10z"/>
<path d="M4380 6246 c0 -2 7 -7 16 -10 8 -3 12 -2 9 4 -6 10 -25 14 -25 6z"/>
<path d="M3825 6220 c-3 -5 -1 -10 4 -10 6 0 11 5 11 10 0 6 -2 10 -4 10 -3 0
-8 -4 -11 -10z"/>
<path d="M4151 6207 c2 -1 13 -9 24 -17 19 -14 19 -14 6 3 -7 9 -18 17 -24 17
-6 0 -8 -1 -6 -3z"/>
<path d="M3568 6183 c7 -3 16 -2 19 1 4 3 -2 6 -13 5 -11 0 -14 -3 -6 -6z"/>
<path d="M3660 6180 c-9 -6 -10 -10 -3 -10 6 0 15 5 18 10 8 12 4 12 -15 0z"/>
<path d="M6598 3703 c7 -3 16 -2 19 1 4 3 -2 6 -13 5 -11 0 -14 -3 -6 -6z"/>
<path d="M8641 1334 c0 -11 3 -14 6 -6 3 7 2 16 -1 19 -3 4 -6 -2 -5 -13z"/>
<path d="M8552 1300 c0 -14 2 -19 5 -12 2 6 2 18 0 25 -3 6 -5 1 -5 -13z"/>
<path d="M8621 1293 c-1 -17 4 -35 9 -38 11 -7 11 9 0 45 -8 24 -8 24 -9 -7z"/>
<path d="M3615 9093 c-90 -8 -174 -24 -235 -43 -66 -21 -253 -110 -246 -117 2
-2 43 16 92 40 151 76 238 98 399 104 110 4 154 2 204 -11 35 -9 66 -15 68
-13 2 3 -22 11 -54 20 -64 17 -166 26 -228 20z"/>
<path d="M3911 9045 c9 -9 79 -35 79 -30 0 3 -16 13 -35 21 -34 14 -52 18 -44
9z"/>
<path d="M3963 8933 c9 -2 23 -2 30 0 6 3 -1 5 -18 5 -16 0 -22 -2 -12 -5z"/>
<path d="M3030 8874 c-41 -31 -106 -88 -144 -127 -70 -73 -166 -209 -166 -237
0 -8 14 10 32 40 63 111 147 205 276 306 72 57 90 74 79 74 -1 0 -36 -25 -77
-56z"/>
<path d="M3360 8915 c-33 -19 -21 -19 21 0 19 8 27 14 19 14 -8 0 -26 -6 -40
-14z"/>
<path d="M3305 8890 c-3 -5 -2 -10 4 -10 5 0 13 5 16 10 3 6 2 10 -4 10 -5 0
-13 -4 -16 -10z"/>
<path d="M3235 8845 c-27 -19 -66 -51 -85 -72 l-35 -38 40 36 c22 20 61 50 88
68 26 18 47 34 47 36 0 7 -2 7 -55 -30z"/>
<path d="M3320 8690 c-8 -5 -12 -12 -9 -15 4 -3 12 1 19 10 14 17 11 19 -10 5z"/>
<path d="M3450 8602 c-23 -22 -23 -24 -3 -13 12 6 25 16 28 22 13 20 0 15 -25
-9z"/>
<path d="M2993 8475 c0 -22 2 -30 4 -17 2 12 2 30 0 40 -3 9 -5 -1 -4 -23z"/>
<path d="M7146 8485 c-9 -26 -7 -32 5 -12 6 10 9 21 6 23 -2 3 -7 -2 -11 -11z"/>
<path d="M2706 8459 c-8 -44 -8 -147 2 -152 4 -3 7 37 8 89 1 52 0 94 -1 94
-1 0 -5 -14 -9 -31z"/>
<path d="M7115 8417 c-27 -44 -29 -51 -16 -43 12 8 44 66 39 71 -2 2 -12 -11
-23 -28z"/>
<path d="M7001 8226 c2 -2 36 -6 74 -9 44 -4 59 -3 40 2 -30 9 -122 14 -114 7z"/>
<path d="M7090 7967 c0 -2 14 -16 32 -33 l32 -29 -25 32 c-20 27 -39 41 -39
30z"/>
<path d="M2301 6654 c0 -11 3 -14 6 -6 3 7 2 16 -1 19 -3 4 -6 -2 -5 -13z"/>
<path d="M7030 6566 c0 -19 3 -37 8 -40 4 -2 6 13 4 35 -5 48 -12 51 -12 5z"/>
<path d="M7048 6503 c7 -3 16 -2 19 1 4 3 -2 6 -13 5 -11 0 -14 -3 -6 -6z"/>
<path d="M6998 6123 c7 -3 16 -2 19 1 4 3 -2 6 -13 5 -11 0 -14 -3 -6 -6z"/>
<path d="M5160 6061 c0 -5 7 -11 15 -15 8 -3 15 -1 15 3 0 5 -7 11 -15 15 -8
3 -15 1 -15 -3z"/>
<path d="M4613 5930 c2 -8 7 -25 11 -37 5 -14 3 -23 -3 -23 -6 0 -11 -5 -11
-12 0 -9 3 -9 12 0 7 7 13 29 14 50 0 20 -1 31 -4 23 -4 -11 -6 -11 -14 0 -8
11 -9 11 -5 -1z"/>
<path d="M2610 5855 c7 -9 15 -13 17 -11 7 7 -7 26 -19 26 -6 0 -6 -6 2 -15z"/>
<path d="M2560 5840 c-13 -9 -13 -11 0 -20 13 -9 7 -14 -12 -11 -13 2 -9 -6 9
-20 12 -10 14 -10 9 -1 -4 7 -1 15 9 18 13 6 14 8 3 15 -11 7 -10 11 2 19 8 5
11 10 5 10 -5 0 -17 -5 -25 -10z"/>
<path d="M4607 5821 c-4 -17 -3 -21 5 -13 5 5 8 16 6 23 -3 8 -7 3 -11 -10z"/>
<path d="M6661 5808 c0 -9 -4 -25 -7 -35 -5 -17 -5 -17 6 0 6 10 9 25 7 35 -4
15 -5 15 -6 0z"/>
<path d="M6360 5780 c0 -11 2 -20 4 -20 2 0 6 9 9 20 3 11 1 20 -4 20 -5 0 -9
-9 -9 -20z"/>
<path d="M4575 5739 c-4 -6 -5 -12 -2 -15 2 -3 7 2 10 11 7 17 1 20 -8 4z"/>
<path d="M6320 5665 c-18 -42 -30 -78 -28 -81 5 -4 50 92 63 134 13 44 -2 21
-35 -53z"/>
<path d="M6599 5663 l-24 -28 28 24 c15 14 27 26 27 28 0 8 -8 1 -31 -24z"/>
<path d="M6647 5569 c-26 -23 -57 -60 -68 -83 l-20 -41 21 25 c83 99 105 123
124 130 13 5 15 9 6 9 -8 1 -37 -18 -63 -40z"/>
<path d="M2936 5577 c3 -10 9 -15 12 -12 3 3 0 11 -7 18 -10 9 -11 8 -5 -6z"/>
<path d="M4430 5560 c-9 -6 -10 -10 -3 -10 6 0 15 5 18 10 8 12 4 12 -15 0z"/>
<path d="M6182 5463 c-57 -57 -99 -103 -93 -103 10 0 155 140 184 178 38 49 9
25 -91 -75z"/>
<path d="M4635 5497 c-6 -7 -8 -25 -4 -42 l6 -30 7 27 c10 35 5 60 -9 45z"/>
<path d="M3362 5460 c7 -11 17 -20 22 -20 5 0 1 9 -9 20 -10 11 -20 20 -22 20
-2 0 2 -9 9 -20z"/>
<path d="M6570 5436 c-8 -11 -4 -15 19 -18 20 -3 27 0 24 8 -7 19 -30 24 -43
10z"/>
<path d="M6517 5308 c-4 -73 -9 -155 -12 -183 -4 -49 -4 -49 5 -10 15 66 32
307 22 317 -5 5 -12 -45 -15 -124z"/>
<path d="M2547 5398 c-3 -13 -2 -41 2 -63 8 -37 8 -35 8 23 0 67 -2 75 -10 40z"/>
<path d="M3445 5375 c22 -19 46 -35 53 -35 6 0 12 -3 12 -7 0 -9 79 -51 152
-82 67 -28 185 -51 265 -51 119 0 268 52 343 120 l35 32 -35 -21 c-181 -106
-299 -130 -473 -97 -78 15 -281 105 -342 152 -48 36 -55 28 -10 -11z"/>
<path d="M4395 5400 c-4 -6 -11 -7 -17 -4 -7 5 -8 2 -4 -5 5 -7 0 -21 -10 -32
-23 -25 -54 -77 -90 -149 -54 -109 -37 -196 46 -237 69 -35 101 -38 165 -14
84 32 181 29 245 -6 l49 -28 53 28 c47 25 63 28 138 27 47 0 106 -3 132 -6 42
-5 50 -3 72 21 26 28 66 121 66 154 0 10 -6 33 -13 50 -13 29 -13 27 -13 -41
1 -64 -3 -79 -29 -121 -34 -54 -61 -66 -105 -43 -17 8 -39 13 -48 10 -14 -5
-14 -4 -3 4 11 8 9 11 -10 15 l-24 4 26 2 c80 4 52 92 -31 95 -18 1 -25 5 -19
11 5 5 9 19 9 31 0 20 -7 23 -55 29 -31 4 -69 5 -85 1 -17 -3 -41 1 -57 9 -15
7 -44 21 -63 29 -48 22 -80 50 -81 73 0 14 -3 13 -12 -7 l-11 -25 -4 28 c-4
31 -9 33 -31 13 -19 -16 -111 -48 -111 -38 0 4 7 18 16 30 9 13 14 25 12 28
-8 8 -68 -27 -67 -39 0 -8 2 -8 6 1 2 6 11 12 18 12 14 0 15 -36 1 -58 -4 -7
-3 -12 3 -12 5 0 11 4 13 9 2 5 17 12 33 15 29 6 29 6 5 -4 -20 -9 -22 -13
-10 -20 12 -8 11 -12 -8 -30 -24 -23 -28 -45 -10 -56 6 -4 8 -3 5 3 -4 5 6 8
24 5 16 -2 29 -8 29 -13 0 -5 10 -9 23 -9 18 0 19 2 7 10 -9 6 -10 10 -3 10 6
0 27 -14 45 -31 l33 -31 -34 17 c-24 12 -47 16 -77 11 -25 -3 -46 -1 -49 4 -8
13 -22 4 -36 -23 l-10 -22 19 22 c25 28 36 18 15 -13 -14 -23 -14 -26 2 -44
16 -18 16 -20 1 -36 -9 -9 -33 -18 -54 -21 -30 -4 -41 0 -58 19 -33 35 -64 99
-64 132 0 39 21 107 31 100 5 -3 6 2 3 10 -7 17 23 79 35 71 5 -2 15 3 22 13
13 15 12 16 -3 3 -27 -20 -22 0 7 31 14 15 21 29 16 33 -5 3 -12 1 -16 -5z"/>
<path d="M4591 5381 c-10 -6 -10 -10 -1 -16 13 -8 24 -1 19 14 -3 6 -10 7 -18
2z"/>
<path d="M4519 5353 c-13 -17 -13 -17 6 -3 11 8 22 16 24 17 2 2 0 3 -6 3 -6
0 -17 -8 -24 -17z"/>
<path d="M4400 5305 c-7 -9 -11 -17 -9 -20 3 -2 10 5 17 15 14 24 10 26 -8 5z"/>
<path d="M5678 5303 c6 -2 18 -2 25 0 6 3 1 5 -13 5 -14 0 -19 -2 -12 -5z"/>
<path d="M5623 5263 c9 -2 23 -2 30 0 6 3 -1 5 -18 5 -16 0 -22 -2 -12 -5z"/>
<path d="M2540 5229 c0 -9 21 -61 46 -115 80 -172 100 -218 114 -262 18 -58
22 -47 9 21 -12 57 -168 387 -169 356z"/>
<path d="M4508 5143 c7 -3 16 -2 19 1 4 3 -2 6 -13 5 -11 0 -14 -3 -6 -6z"/>
<path d="M4355 5070 c-3 -5 -2 -18 4 -27 7 -14 9 -12 8 10 -2 30 -3 31 -12 17z"/>
<path d="M6496 5055 c-3 -9 -6 -22 -5 -28 0 -7 5 -1 10 12 5 13 8 26 5 28 -2
2 -6 -3 -10 -12z"/>
<path d="M6526 5033 c-6 -14 -5 -15 5 -6 7 7 10 15 7 18 -3 3 -9 -2 -12 -12z"/>
<path d="M6531 4949 c-13 -11 -22 -22 -19 -25 3 -2 16 4 29 15 13 11 22 22 19
24 -3 3 -16 -3 -29 -14z"/>
<path d="M4710 4735 c0 -10 33 -35 46 -35 25 0 15 18 -16 29 -16 5 -30 8 -30
6z"/>
<path d="M4825 4710 c-3 -6 1 -7 9 -4 18 7 21 14 7 14 -6 0 -13 -4 -16 -10z"/>
<path d="M6480 4665 c-13 -14 -33 -25 -46 -25 -16 0 -26 -10 -38 -40 -23 -59
-19 -72 7 -20 14 29 29 46 43 48 22 3 71 48 62 57 -2 3 -15 -6 -28 -20z"/>
<path d="M4597 4599 c-10 -6 -25 -8 -34 -5 -11 4 -14 2 -9 -9 3 -8 1 -15 -5
-15 -6 0 -34 -11 -62 -24 -119 -54 -234 -79 -262 -56 -23 19 -105 -5 -105 -30
0 -14 89 -22 123 -11 60 18 244 51 288 51 24 0 63 -7 87 -15 83 -29 142 -32
207 -12 81 25 188 19 330 -21 123 -34 215 -46 215 -27 0 16 -38 55 -55 55 -8
0 -16 -4 -19 -9 -3 -5 -18 -12 -33 -16 -34 -8 -223 52 -223 72 0 7 -12 20 -27
30 -21 14 -53 18 -163 20 -90 2 -151 8 -180 18 -50 18 -50 18 -73 4z m-11 -64
c-8 -8 -21 -15 -28 -15 -8 1 -6 6 6 15 26 20 42 19 22 0z"/>
<path d="M4605 4460 c-3 -5 -1 -10 4 -10 6 0 11 5 11 10 0 6 -2 10 -4 10 -3 0
-8 -4 -11 -10z"/>
<path d="M4618 4433 c7 -3 16 -2 19 1 4 3 -2 6 -13 5 -11 0 -14 -3 -6 -6z"/>
<path d="M4664 4429 c-3 -5 6 -9 20 -9 31 0 34 6 6 13 -11 3 -23 1 -26 -4z"/>
<path d="M3237 4259 c6 -6 9 -18 6 -27 -4 -10 -2 -13 5 -8 18 11 14 33 -5 41
-14 5 -15 3 -6 -6z"/>
<path d="M4470 4231 c0 -6 24 -35 54 -64 29 -28 58 -62 65 -74 15 -30 47 -36
94 -20 32 12 48 12 95 1 52 -12 72 -12 126 3 18 5 18 6 2 15 -15 9 -14 12 11
33 l27 24 -22 24 c-17 18 -44 28 -110 40 -117 22 -342 33 -342 18z"/>
<path d="M7150 4175 c46 -18 64 -17 25 0 -16 8 -37 14 -45 14 -8 0 1 -7 20
-14z"/>
<path d="M7885 3565 c11 -9 43 -32 70 -51 47 -33 48 -33 15 -4 -19 17 -51 40
-70 50 -19 11 -26 13 -15 5z"/>
<path d="M8077 3428 c37 -28 88 -71 112 -95 24 -24 48 -43 53 -43 21 0 -204
189 -225 190 -5 0 22 -23 60 -52z"/>
<path d="M8360 3179 c58 -62 121 -140 139 -171 18 -32 35 -58 38 -58 6 0 -42
85 -66 116 -54 71 -154 183 -182 203 -19 14 13 -27 71 -90z"/>
<path d="M5478 3115 c-20 -14 -41 -25 -46 -25 -5 0 -19 -11 -32 -25 -13 -14
-27 -25 -31 -25 -17 0 -78 -46 -79 -59 0 -8 -3 -11 -6 -8 -4 4 -20 -3 -36 -15
-26 -18 -28 -22 -14 -30 10 -6 23 -5 34 2 14 9 13 10 -8 5 -23 -6 -24 -5 -5 7
11 7 29 14 40 15 24 4 47 32 38 46 -3 5 0 7 8 5 8 -3 43 19 79 48 35 30 71 53
78 51 8 -1 16 6 17 16 4 21 7 22 -37 -8z"/>
<path d="M5170 2895 c-37 -27 -36 -32 4 -14 14 7 27 18 30 25 7 17 8 18 -34
-11z"/>
<path d="M8606 2797 c3 -10 9 -15 12 -12 3 3 0 11 -7 18 -10 9 -11 8 -5 -6z"/>
<path d="M8652 2675 c0 -16 2 -22 5 -12 2 9 2 23 0 30 -3 6 -5 -1 -5 -18z"/>
<path d="M6207 2620 c3 -11 9 -20 13 -20 5 0 6 9 3 20 -3 11 -9 20 -13 20 -5
0 -6 -9 -3 -20z"/>
<path d="M4604 2621 c3 -5 -4 -12 -17 -15 -12 -3 -33 -14 -46 -25 l-24 -18 38
-13 c35 -12 39 -11 63 14 22 22 24 26 9 26 -10 0 -15 5 -12 10 4 6 11 8 16 5
5 -4 9 -2 9 3 0 6 -7 13 -16 16 -21 8 -26 8 -20 -3z"/>
<path d="M6298 2420 c18 -21 15 -34 -5 -19 -15 11 -16 11 -5 -1 15 -18 16 -34
0 -24 -7 5 -8 3 -3 -6 6 -10 11 -9 22 5 17 24 17 30 -4 46 -15 11 -16 11 -5
-1z"/>
<path d="M6344 2355 c-3 -25 -4 -55 -1 -66 3 -12 0 -28 -9 -36 -8 -8 -14 -22
-14 -31 1 -15 3 -14 15 3 8 11 20 26 27 34 9 11 9 16 0 19 -14 4 -16 82 -2 82
6 0 10 9 10 20 0 38 -19 20 -26 -25z"/>
<path d="M6200 2320 c-12 -8 -12 -10 3 -16 9 -3 14 -10 11 -15 -3 -5 -1 -9 5
-9 17 0 21 18 5 24 -8 3 -12 10 -9 16 8 12 4 12 -15 0z"/>
<path d="M6129 2263 c-13 -16 -12 -17 4 -4 16 13 21 21 13 21 -2 0 -10 -8 -17
-17z"/>
<path d="M6130 2220 c0 -5 5 -10 10 -10 6 0 10 5 10 10 0 6 -4 10 -10 10 -5 0
-10 -4 -10 -10z"/>
<path d="M3646 2147 c3 -10 9 -15 12 -12 3 3 0 11 -7 18 -10 9 -11 8 -5 -6z"/>
<path d="M5910 2129 c-12 -8 -10 -9 9 -4 17 5 22 4 16 -5 -5 -9 -4 -11 4 -6 6
4 9 12 6 17 -8 12 -16 11 -35 -2z"/>
<path d="M3620 2128 c0 -2 9 -11 20 -21 11 -9 20 -13 20 -7 0 5 -9 14 -20 20
-11 6 -20 9 -20 8z"/>
<path d="M5965 2100 c3 -5 8 -10 11 -10 2 0 4 5 4 10 0 6 -5 10 -11 10 -5 0
-7 -4 -4 -10z"/>
<path d="M4260 2085 c7 -8 16 -15 21 -15 5 0 6 7 3 15 -4 8 -13 15 -21 15 -13
0 -13 -3 -3 -15z"/>
<path d="M6300 2040 c-11 -7 -12 -12 -4 -20 8 -8 13 -6 17 9 3 12 4 21 4 21
-1 0 -9 -5 -17 -10z"/>
<path d="M6238 1977 c-3 -19 -2 -25 4 -19 6 6 8 18 6 28 -3 14 -5 12 -10 -9z"/>
<path d="M6270 1970 c0 -5 5 -10 10 -10 6 0 10 5 10 10 0 6 -4 10 -10 10 -5 0
-10 -4 -10 -10z"/>
<path d="M6442 1940 c0 -14 2 -19 5 -12 2 6 2 18 0 25 -3 6 -5 1 -5 -13z"/>
<path d="M3870 1903 c14 -10 49 -40 78 -67 28 -27 52 -44 52 -39 0 12 -82 82
-125 107 -29 17 -30 17 -5 -1z"/>
<path d="M9010 1905 c24 -32 40 -47 40 -37 0 4 -12 19 -27 33 -20 18 -23 19
-13 4z"/>
<path d="M4026 1764 c10 -17 33 -43 49 -56 36 -30 172 -108 188 -108 7 0 -28
23 -78 51 -50 28 -109 71 -134 97 -34 36 -40 40 -25 16z"/>
<path d="M4535 1754 c72 -35 130 -42 200 -24 18 5 0 6 -45 3 -70 -5 -80 -3
-138 26 -34 17 -67 31 -74 30 -7 0 18 -16 57 -35z"/>
<path d="M5129 1770 c-56 -22 -181 -41 -235 -35 l-39 5 35 -10 c49 -14 152 -2
240 27 41 14 77 27 79 29 11 10 -39 0 -80 -16z"/>
<path d="M5630 1770 c-8 -5 -10 -10 -5 -10 6 0 17 5 25 10 8 5 11 10 5 10 -5
0 -17 -5 -25 -10z"/>
<path d="M5505 1712 c-111 -59 -194 -112 -178 -112 6 0 40 17 75 39 35 21 97
57 138 79 41 23 71 42 65 42 -5 0 -50 -22 -100 -48z"/>
<path d="M4793 1743 c9 -2 23 -2 30 0 6 3 -1 5 -18 5 -16 0 -22 -2 -12 -5z"/>
<path d="M3851 1584 c7 -8 44 -34 83 -56 39 -23 98 -59 130 -80 33 -21 64 -38
70 -38 12 0 -28 27 -193 127 -57 34 -98 56 -90 47z"/>
<path d="M4335 1575 c70 -30 194 -69 200 -63 5 5 -198 78 -235 84 -14 3 2 -7
35 -21z"/>
<path d="M5245 1579 c-22 -10 -33 -18 -25 -18 20 1 99 38 80 37 -8 0 -33 -8
-55 -19z"/>
<path d="M5990 1593 c-8 -3 -40 -21 -70 -39 -30 -19 -104 -54 -165 -79 -60
-24 -104 -45 -97 -45 6 0 54 17 105 38 124 52 319 159 227 125z"/>
<path d="M5085 1519 c-39 -12 -129 -14 -240 -6 l-90 7 105 -15 c108 -16 230
-9 253 14 12 12 13 12 -28 0z"/>
<path d="M4577 1503 c18 -2 50 -2 70 0 21 2 7 4 -32 4 -38 0 -55 -2 -38 -4z"/>
<path d="M4160 1406 c0 -2 30 -21 68 -42 76 -43 150 -63 202 -54 29 5 23 7
-35 12 -69 6 -131 28 -190 68 -29 19 -45 25 -45 16z"/>
<path d="M5392 1362 c-73 -25 -130 -47 -128 -49 4 -5 276 84 285 93 11 10 -34
-2 -157 -44z"/>
<path d="M8975 1400 c-3 -5 -1 -10 4 -10 6 0 11 5 11 10 0 6 -2 10 -4 10 -3 0
-8 -4 -11 -10z"/>
<path d="M8990 1330 c0 -5 5 -10 10 -10 6 0 10 5 10 10 0 6 -4 10 -10 10 -5 0
-10 -4 -10 -10z"/>
<path d="M8962 1290 c0 -19 2 -27 5 -17 2 9 2 25 0 35 -3 9 -5 1 -5 -18z"/>
<path d="M5228 1303 c7 -3 16 -2 19 1 4 3 -2 6 -13 5 -11 0 -14 -3 -6 -6z"/>
<path d="M5188 1293 c7 -3 16 -2 19 1 4 3 -2 6 -13 5 -11 0 -14 -3 -6 -6z"/>
<path d="M8772 1230 c0 -14 2 -19 5 -12 2 6 2 18 0 25 -3 6 -5 1 -5 -13z"/>
<path d="M9230 1176 c0 -9 5 -16 10 -16 6 0 10 4 10 9 0 6 -4 13 -10 16 -5 3
-10 -1 -10 -9z"/>
<path d="M3950 570 c0 -5 5 -10 11 -10 5 0 7 5 4 10 -3 6 -8 10 -11 10 -2 0
-4 -4 -4 -10z"/>
</g>
</svg>
